# xmcd CD database file
#
# Track frame offsets:
#	150
#	25192
#	50622
#
# Disc length: 1022 seconds
#
# Revision: 0
# Processed by: cddbd v1.5.1PL0 Copyright (c) Steve Scherf et al.
# Submitted via: CDex 1.51
#
DISCID=1e03fc03
DTITLE=高野 寛 - Blue Stone
DYEAR=1995
DGENRE=Pop
TTITLE0=Blue Stone [Original Version]
TTITLE1=Blue Stone [Hard Edge Version]
TTITLE2=Blue Stone [Cool Blue Version]
EXTD=YEAR: 1995
EXTT0=
EXTT1=
EXTT2=
PLAYORDER=
